<?xml version="1.0" encoding="UTF-8"?>
<!DOCTYPE svg PUBLIC "-//W3C//DTD SVG 1.1//EN" "http://www.w3.org/Graphics/SVG/1.1/DTD/svg11.dtd">
<!-- Creator: CorelDRAW 2018 (64-Bit) -->
<svg xmlns="http://www.w3.org/2000/svg" xml:space="preserve" width="0.333331in" height="0.333331in" version="1.1" style="shape-rendering:geometricPrecision; text-rendering:geometricPrecision; image-rendering:optimizeQuality; fill-rule:evenodd; clip-rule:evenodd"
viewBox="0 0 333.33 333.33"
 xmlns:xlink="http://www.w3.org/1999/xlink">
 <defs>
  <style type="text/css">
   <![CDATA[
    .str0 {stroke:#039979;stroke-width:5.46;stroke-miterlimit:2.61313}                                     
    .str1 {stroke:#039979;stroke-width:5.46;stroke-miterlimit:2.61313}
    .str2 {stroke:#039979;stroke-width:5.46;stroke-miterlimit:2.61313}
    .str6 {stroke:#039979;stroke-width:5.46;stroke-miterlimit:2.61313}
    .str9 {stroke:#039979;stroke-width:5.46;stroke-miterlimit:2.61313}
    .str4 {stroke:#039979;stroke-width:5.46;stroke-miterlimit:2.61313}
    .str10 {stroke:#039979;stroke-width:5.46;stroke-miterlimit:2.61313}
    .str5 {stroke:#039979;stroke-width:5.46;stroke-miterlimit:2.61313}
    .str3 {stroke:#039979;stroke-width:5.46;stroke-miterlimit:2.61313}
    .str7 {stroke:#039979;stroke-width:5.46;stroke-miterlimit:2.61313}
    .str8 {stroke:#039979;stroke-width:5.46;stroke-miterlimit:2.61313}
    .fil0 {fill:none}
    .fil2 {fill:#039979;}
    .fil1 {fill:#039979;fill-rule:nonzero}
   ]]>
  </style>
 </defs>
 <g id="Layer_x0020_1">
  <metadata id="CorelCorpID_0Corel-Layer"/>
  <g id="calc.svg">
   <rect class="fil0" x="0.9" y="-0.49" width="333.33" height="332.29"/>
   <g>
    <rect class="fil0 str0" x="95.49" y="75.12" width="144.15" height="181.08" rx="7.73" ry="7.73"/>
    <g>
     <path class="fil1" d="M229.06 97.63l-123.19 0 0 -5.46 123.19 0 0 0 0 5.46zm4.61 -0.85l-5.46 0 0 0 -0 0.01 0.01 0.08 0.01 0.08 -0 -0.03 0.02 0.07 0.01 0.03 0.01 0.04 0.01 0.04 0.03 0.06 0.02 0.04 0.01 0.01 0.02 0.03 0.02 0.02 0.08 0.1 -0.01 -0 0.03 0.02 0.02 0.03 -0 -0.01 0.1 0.08 0.02 0.02 0.03 0.02 0.01 0.01 0.04 0.02 0.06 0.03 0.04 0.01 0.04 0.02 0.03 0.01 0.07 0.02 -0.02 -0 0.08 0.01 0.08 0.01 0.01 -0 0 -5.46 0.21 0 0.27 0.02 0.27 0.04 0.16 0.03 0.26 0.06 0.21 0.06 0.21 0.07 0.21 0.08 0.22 0.1 0.2 0.11 0.17 0.09 0.19 0.12 0.17 0.12 0.24 0.19 0.13 0.12 0.16 0.15 0.15 0.16 0.12 0.13 0.19 0.24 0.12 0.17 0.12 0.19 0.09 0.17 0.11 0.2 0.1 0.23 0.08 0.21 0.07 0.21 0.06 0.21 0.06 0.26 0.03 0.15 0.04 0.27 0.02 0.27 0 0.21 0 0zm-5.46 31.36l0 -31.36 5.46 0 0 31.36 0 0 -5.46 0zm0.85 4.61l0 -5.46 0 0 -0.01 -0 -0.08 0.01 -0.08 0.01 0.02 -0 -0.07 0.02 -0.03 0.01 -0.04 0.02 -0.04 0.01 -0.06 0.03 -0.04 0.02 -0.01 0.01 -0.03 0.02 -0.02 0.02 -0.1 0.08 0 -0.01 -0.02 0.03 -0.03 0.02 0.01 -0 -0.08 0.1 -0.02 0.02 -0.02 0.03 -0.01 0.01 -0.02 0.04 -0.03 0.06 -0.01 0.04 -0.01 0.04 -0.01 0.03 -0.02 0.07 0 -0.03 -0.01 0.08 -0.01 0.08 0 0.01 5.46 0 -0 0.21 -0.02 0.27 -0.04 0.27 -0.03 0.15 -0.06 0.26 -0.06 0.21 -0.07 0.21 -0.08 0.21 -0.1 0.23 -0.11 0.2 -0.09 0.17 -0.12 0.19 -0.12 0.17 -0.19 0.24 -0.12 0.13 -0.15 0.16 -0.16 0.15 -0.13 0.12 -0.24 0.19 -0.17 0.12 -0.19 0.12 -0.17 0.09 -0.2 0.11 -0.22 0.1 -0.21 0.08 -0.21 0.07 -0.21 0.06 -0.26 0.06 -0.16 0.03 -0.27 0.04 -0.27 0.02 -0.21 0 0 0zm-123.19 -5.46l123.19 0 0 5.46 -123.19 0 0 0 0 -5.46zm-4.61 0.85l5.46 0 0 0 0 -0.01 -0.01 -0.08 -0.01 -0.08 0 0.03 -0.02 -0.07 -0.01 -0.03 -0.01 -0.04 -0.01 -0.04 -0.03 -0.06 -0.02 -0.04 -0.01 -0.01 -0.02 -0.03 -0.02 -0.02 -0.08 -0.1 0.01 0 -0.03 -0.02 -0.02 -0.03 0 0.01 -0.1 -0.08 -0.02 -0.02 -0.03 -0.02 -0.01 -0.01 -0.04 -0.02 -0.06 -0.03 -0.04 -0.01 -0.04 -0.02 -0.03 -0.01 -0.07 -0.02 0.02 0 -0.08 -0.01 -0.08 -0.01 -0.01 0 0 5.46 -0.21 -0 -0.27 -0.02 -0.27 -0.04 -0.16 -0.03 -0.26 -0.06 -0.21 -0.06 -0.21 -0.07 -0.21 -0.08 -0.22 -0.1 -0.2 -0.11 -0.17 -0.09 -0.19 -0.12 -0.17 -0.12 -0.24 -0.19 -0.13 -0.12 -0.16 -0.15 -0.15 -0.16 -0.12 -0.13 -0.19 -0.24 -0.12 -0.17 -0.12 -0.19 -0.09 -0.17 -0.11 -0.2 -0.1 -0.23 -0.08 -0.21 -0.07 -0.21 -0.06 -0.21 -0.06 -0.26 -0.03 -0.15 -0.04 -0.27 -0.02 -0.27 -0 -0.21 0 0zm5.46 -31.36l0 31.36 -5.46 0 0 -31.36 0 0 5.46 0zm-0.85 -4.61l0 5.46 0 0 0.01 0 0.08 -0.01 0.08 -0.01 -0.02 0 0.07 -0.02 0.03 -0.01 0.04 -0.02 0.04 -0.01 0.06 -0.03 0.04 -0.02 0.01 -0.01 0.03 -0.02 0.02 -0.02 0.1 -0.08 -0 0.01 0.02 -0.03 0.03 -0.02 -0.01 0 0.08 -0.1 0.02 -0.02 0.02 -0.03 0.01 -0.01 0.02 -0.04 0.03 -0.06 0.01 -0.04 0.01 -0.04 0.01 -0.03 0.02 -0.07 -0 0.03 0.01 -0.08 0.01 -0.08 -0 -0.01 -5.46 0 0 -0.21 0.02 -0.27 0.04 -0.27 0.03 -0.15 0.06 -0.26 0.06 -0.21 0.07 -0.21 0.08 -0.21 0.1 -0.23 0.11 -0.2 0.09 -0.17 0.12 -0.19 0.12 -0.17 0.19 -0.24 0.12 -0.13 0.15 -0.16 0.16 -0.15 0.13 -0.12 0.24 -0.19 0.17 -0.12 0.19 -0.12 0.17 -0.09 0.2 -0.11 0.22 -0.1 0.21 -0.08 0.21 -0.07 0.21 -0.06 0.26 -0.06 0.16 -0.03 0.27 -0.04 0.27 -0.02 0.21 -0 0 0z"/>
    </g>
    <g>
     <rect class="fil2 str1" x="106.17" y="157.16" width="21.64" height="19.02" rx="2.13" ry="2.13"/>
     <rect class="fil2 str2" x="172.54" y="157.36" width="21.64" height="19.02" rx="2.13" ry="2.13"/>
     <rect class="fil2 str3" x="206.65" y="157.49" width="21.64" height="19.02" rx="2.13" ry="2.13"/>
     <rect class="fil2 str4" x="138.67" y="157.23" width="21.64" height="19.02" rx="2.13" ry="2.13"/>
    </g>
    <rect class="fil2 str5" x="105.58" y="187.66" width="21.64" height="19.02" rx="2.13" ry="2.13"/>
    <rect class="fil2 str6" x="171.95" y="187.85" width="21.64" height="19.02" rx="2.13" ry="2.13"/>
    <g>
     <path class="fil2" d="M208.48 187.98l16.8 0c1.33,0 2.43,1.09 2.43,2.43l0 44.83c0,1.33 -1.09,2.43 -2.43,2.43l-16.8 0c-1.33,0 -2.43,-1.09 -2.43,-2.43l0 -44.83c0,-1.33 1.09,-2.43 2.43,-2.43z"/>
     <path id="1" class="fil1" d="M225.28 190.7l-16.8 0 0 -5.43 16.8 0 0 0 0 5.43zm5.16 -0.29l-5.46 0 0 0 0 0 0 0.01 0.01 0.06 -0.01 -0.03 0.01 0.02 0.02 0.07 -0.01 -0.02 -0.01 -0.03 0.02 0.04 0 0.01 0.02 0.02 0.02 0.04 -0.01 -0.02 -0.01 -0.01 0.03 0.04 0 0.01 0.01 0.01 0.04 0.03 -0.01 -0.01 -0.02 -0.01 0.04 0.02 0.02 0.02 0.01 0 0.04 0.02 -0.03 -0.01 -0.02 -0.01 0.08 0.02 0.02 0.01 -0.02 -0 0.06 0.01 0.01 0 0 0 0 -5.43 0.26 0.01 0.26 0.02 0.3 0.04 0.21 0.04 0.26 0.06 0.31 0.09 0.2 0.07 0.19 0.07 0.26 0.11 0.21 0.11 0.23 0.13 0.24 0.16 0.17 0.12 0.17 0.13 0.22 0.18 0.18 0.17 0.17 0.17 0.18 0.22 0.13 0.17 0.12 0.17 0.15 0.24 0.13 0.22 0.11 0.21 0.11 0.26 0.07 0.19 0.07 0.2 0.09 0.3 0.06 0.26 0.04 0.21 0.04 0.3 0.02 0.25 0.01 0.26 0 0zm-5.46 44.83l0 -44.83 5.46 0 0 44.83 0 0 -5.46 0zm0.31 5.14l0 -5.43 0 0 -0 0 -0.01 0 -0.06 0.01 0.02 -0 -0.02 0.01 -0.08 0.02 0.02 -0.01 0.03 -0.01 -0.04 0.02 -0.01 0 -0.02 0.02 -0.04 0.02 0.02 -0.01 0.01 -0.01 -0.04 0.03 -0.01 0.01 -0 0.01 -0.03 0.04 0.01 -0.01 0.01 -0.02 -0.02 0.04 -0.02 0.02 0 0.01 -0.02 0.04 0.01 -0.03 0.01 -0.02 -0.02 0.07 -0.01 0.02 0.01 -0.03 -0.01 0.06 0 0.01 0 0 5.46 0 -0.01 0.26 -0.02 0.25 -0.04 0.3 -0.04 0.21 -0.06 0.26 -0.09 0.3 -0.07 0.2 -0.07 0.19 -0.11 0.26 -0.11 0.21 -0.13 0.22 -0.15 0.24 -0.12 0.17 -0.13 0.17 -0.18 0.22 -0.17 0.17 -0.18 0.17 -0.22 0.18 -0.17 0.13 -0.17 0.12 -0.24 0.16 -0.23 0.13 -0.21 0.11 -0.26 0.11 -0.19 0.07 -0.2 0.07 -0.31 0.09 -0.26 0.06 -0.21 0.04 -0.3 0.04 -0.26 0.02 -0.26 0.01 0 0zm-16.8 -5.43l16.8 0 0 5.43 -16.8 0 0 0 0 -5.43zm-5.16 0.29l5.46 0 0 0 0 -0 0 -0.01 -0.01 -0.06 0.01 0.03 -0.01 -0.02 -0.02 -0.07 0.01 0.02 0.01 0.03 -0.02 -0.04 0 -0.01 -0.02 -0.02 -0.02 -0.04 0.01 0.02 0.01 0.01 -0.03 -0.04 -0 -0.01 -0.01 -0.01 -0.04 -0.03 0.01 0.01 0.02 0.01 -0.04 -0.02 -0.02 -0.02 -0.01 0 -0.04 -0.02 0.03 0.01 0.02 0.01 -0.08 -0.02 -0.02 -0.01 0.02 0 -0.06 -0.01 -0.01 0 -0 0 0 5.43 -0.26 -0.01 -0.26 -0.02 -0.3 -0.04 -0.21 -0.04 -0.26 -0.06 -0.31 -0.09 -0.2 -0.07 -0.19 -0.07 -0.26 -0.11 -0.21 -0.11 -0.23 -0.13 -0.24 -0.16 -0.17 -0.12 -0.17 -0.13 -0.22 -0.18 -0.18 -0.17 -0.17 -0.17 -0.18 -0.22 -0.13 -0.17 -0.12 -0.17 -0.15 -0.24 -0.13 -0.22 -0.11 -0.21 -0.11 -0.26 -0.07 -0.19 -0.07 -0.2 -0.09 -0.3 -0.06 -0.26 -0.04 -0.21 -0.04 -0.3 -0.02 -0.25 -0.01 -0.26 0 0zm5.46 -44.83l0 44.83 -5.46 0 0 -44.83 0 0 5.46 0zm-0.31 -5.14l0 5.43 0 0 0 0 0.01 0 0.06 -0.01 -0.02 0 0.02 -0.01 0.08 -0.02 -0.02 0.01 -0.03 0.01 0.04 -0.02 0.01 0 0.02 -0.02 0.04 -0.02 -0.02 0.01 -0.01 0.01 0.04 -0.03 0.01 -0.01 0 -0.01 0.03 -0.04 -0.01 0.01 -0.01 0.02 0.02 -0.04 0.02 -0.02 0 -0.01 0.02 -0.04 -0.01 0.03 -0.01 0.02 0.02 -0.07 0.01 -0.02 -0.01 0.03 0.01 -0.06 0 -0.01 0 -0 -5.46 0 0.01 -0.26 0.02 -0.25 0.04 -0.3 0.04 -0.21 0.06 -0.26 0.09 -0.3 0.07 -0.2 0.07 -0.19 0.11 -0.26 0.11 -0.21 0.13 -0.22 0.15 -0.24 0.12 -0.17 0.13 -0.17 0.18 -0.22 0.17 -0.17 0.18 -0.17 0.22 -0.18 0.17 -0.13 0.17 -0.12 0.24 -0.16 0.23 -0.13 0.21 -0.11 0.26 -0.11 0.19 -0.07 0.2 -0.07 0.31 -0.09 0.26 -0.06 0.21 -0.04 0.3 -0.04 0.26 -0.02 0.26 -0.01 0 0z"/>
    </g>
    <rect class="fil2 str7" x="138.07" y="187.72" width="21.64" height="19.02" rx="2.13" ry="2.13"/>
    <rect class="fil2 str8" x="105.25" y="218.39" width="21.64" height="19.02" rx="2.13" ry="2.13"/>
    <rect class="fil2 str9" x="171.62" y="218.58" width="21.64" height="19.02" rx="2.13" ry="2.13"/>
    <rect class="fil2 str10" x="137.75" y="218.45" width="21.64" height="19.02" rx="2.13" ry="2.13"/>
   </g>
  </g>
 </g>
</svg>
