<?xml version="1.0" encoding="UTF-8"?>
<!DOCTYPE svg PUBLIC "-//W3C//DTD SVG 1.1//EN" "http://www.w3.org/Graphics/SVG/1.1/DTD/svg11.dtd">
<!-- Creator: CorelDRAW 2018 -->
<svg xmlns="http://www.w3.org/2000/svg" xml:space="preserve" width="1181px" height="1181px" version="1.1" style="shape-rendering:geometricPrecision; text-rendering:geometricPrecision; image-rendering:optimizeQuality; fill-rule:evenodd; clip-rule:evenodd"
viewBox="0 0 1181 1181"
 xmlns:xlink="http://www.w3.org/1999/xlink">
 <defs>
  <style type="text/css">
   <![CDATA[
    .str0 {stroke:#475993;stroke-width:2.36;stroke-miterlimit:22.9256}
    .fil0 {fill:#FEFEFE}
    .fil1 {fill:#475993}
   ]]>
  </style>
 </defs>
 <g id="Layer_x0020_1">
  <metadata id="CorelCorpID_0Corel-Layer"/>
  <g id="_815353856">
   <rect class="fil0" x="-1.23" y="3.05" width="1181" height="1181" rx="590.5" ry="590.5"/>
   <path class="fil1 str0" d="M563.42 303.56c36.29,-21.58 114.79,-24.16 166.19,-17.01l4.78 97.13c-23.08,-0.04 -59.92,-2.59 -80.17,5.74 -19.39,7.98 -22.2,16.01 -21.25,42.74l-0.45 62.67 120.5 -0.01 -7.21 111.58 -112.54 -0.52 -0.01 360.51 -119.4 -0.01 -0.31 -360.39 -97.07 -0.26c0.06,-31.9 0.15,-79.03 0.22,-110.93l96.88 0.08 0.31 -93.89c0,-31.94 17.9,-78.62 49.53,-97.43z"/>
  </g>
 </g>
</svg>
