<?xml version="1.0" encoding="UTF-8"?>
<!DOCTYPE svg PUBLIC "-//W3C//DTD SVG 1.1//EN" "http://www.w3.org/Graphics/SVG/1.1/DTD/svg11.dtd">
<!-- Creator: CorelDRAW 2018 -->
<svg xmlns="http://www.w3.org/2000/svg" xml:space="preserve" width="1181px" height="1181px" version="1.1" style="shape-rendering:geometricPrecision; text-rendering:geometricPrecision; image-rendering:optimizeQuality; fill-rule:evenodd; clip-rule:evenodd"
viewBox="0 0 1181 1181"
 xmlns:xlink="http://www.w3.org/1999/xlink">
 <defs>
  <style type="text/css">
   <![CDATA[
    .fil0 {fill:#FEFEFE}
    .fil1 {fill:#00A859}
    .fil3 {fill:#4385F6}
    .fil5 {fill:#C52320}
    .fil2 {fill:#EC413A}
    .fil4 {fill:#FEB70D}
   ]]>
  </style>
 </defs>
 <g id="Layer_x0020_1">
  <metadata id="CorelCorpID_0Corel-Layer"/>
  <g id="_820733536">
   <rect class="fil0" x="3.07" y="2.28" width="1181" height="1181" rx="590.5" ry="590.5"/>
   <path class="fil1" d="M811.43 372.7l0 517.72 118.65 0c25.16,0 46,-21.2 46,-47.92l0.52 -446.27c0,-5.89 -2.99,-39.88 -4.57,-43.59 -38.28,-89.63 -139.12,-30.07 -160.6,20.06z"/>
   <path class="fil2" d="M348.99 319.27l244.52 192.24 259.3 -192.43c47.38,-33.16 95.19,-25.11 118.75,23.76 6.52,13.52 4.94,50.26 4.85,63.99l-0.26 36.79 -382.64 289 -382.67 -286.49 1.34 -83.12c13.57,-58.85 50.49,-66.44 95.5,-60.73 16.6,2.11 28.64,7.36 41.31,16.99z"/>
   <path class="fil3" d="M375.67 348.75l-0.08 534.68 -118.65 0c-25.17,0 -46.01,-21.2 -46.01,-47.91l-0.49 -423.53c0.01,-3.67 -0.38,-23.36 -0.1,-37.24 0.24,-11.68 1.85,-33.03 8.43,-43.03 41.13,-62.48 111.3,-34.35 153.56,10.41 4.19,4.43 3.9,1.71 3.34,6.62z"/>
   <path class="fil4" d="M811.42 349.79l0.01 218.24 165.11 -124.76c-0.21,-18.74 2.12,-78.76 -2.81,-93.84 -9.69,-29.65 -32.18,-50.73 -69.12,-50.27 -33.03,-0.12 -65.51,29.38 -93.19,50.63z"/>
   <path class="fil5" d="M376.77 341.12l-1.13 228.39 -165.16 -129.14 -0.25 -54.54 0.09 -10.17 0.53 -18.51c1.16,-6.98 2.69,-13.37 4.85,-19.09 24.01,-63.67 106.29,-51.29 161.07,3.06z"/>
  </g>
 </g>
</svg>
